<svg width="23" height="13" viewBox="0 0 23 13" fill="none" xmlns="http://www.w3.org/2000/svg">
<path fill-rule="evenodd" clip-rule="evenodd" d="M11.7794 4.47875C10.824 1.78898 8.00786 -0.0208629 4.85986 0.599084C2.55669 1.05904 0.685995 2.88889 0.203235 5.17869C-0.621481 9.04836 2.33543 12.4781 6.09693 12.4781C8.72194 12.4781 10.9547 10.8082 11.7794 8.47841H16.1544V10.4782C16.1544 11.5781 17.0596 12.4781 18.1659 12.4781C19.2723 12.4781 20.1774 11.5781 20.1774 10.4782V8.47841C21.2838 8.47841 22.1889 7.57849 22.1889 6.47858C22.1889 5.37867 21.2838 4.47875 20.1774 4.47875H11.7794ZM6.09699 8.4791C4.99067 8.4791 4.08549 7.5791 4.08549 6.4791C4.08549 5.3791 4.99067 4.4791 6.09699 4.4791C7.20332 4.4791 8.10849 5.3791 8.10849 6.4791C8.10849 7.5791 7.20332 8.4791 6.09699 8.4791Z" fill="#DFE2E6"/>
</svg>
