<svg width="423" height="67" viewBox="0 0 423 67" fill="none" xmlns="http://www.w3.org/2000/svg">
<g filter="url(#filter0_d)">
<rect x="3" y="23.4866" width="417" height="39.9966" rx="19.9983" fill="white"/>
<rect x="3.5" y="23.9866" width="416" height="38.9966" rx="19.4983" stroke="#DFE2E6"/>
</g>
<path fill-rule="evenodd" clip-rule="evenodd" d="M42.313 1.12465C41.9751 1.46065 41.9751 2.01265 42.3009 2.34865C42.6389 2.67265 43.2182 2.67265 43.544 2.34865C43.882 2.01265 43.882 1.46065 43.544 1.12465C43.2061 0.776647 42.6509 0.776647 42.313 1.12465ZM14.1924 1.08865V9.48865H19.3217V8.24065H15.52V5.64865H18.4889V4.40065H15.52V2.33665H19.201V1.08865H14.1924ZM20.7337 6.23666H24.994V5.13266H20.7337V6.23666ZM28.2766 9.48865H26.949V1.08865H28.518L30.618 6.68065L32.718 1.08865H34.287V9.48865H32.9594V3.82465L31.0887 8.72065H30.1473L28.2766 3.82465V9.48865ZM38.4027 5.76863C36.8217 5.76863 35.7717 6.51263 35.7717 7.74863C35.7717 8.94864 36.5683 9.58463 37.6424 9.58463C38.4752 9.58463 39.1027 9.28464 39.5252 8.69664L39.6459 9.48864H40.7079V5.73264C40.7079 4.13664 39.8993 3.34464 38.2821 3.34464C37.1234 3.34464 36.2424 3.99264 35.9889 5.01264L37.1355 5.25264C37.3407 4.71264 37.7148 4.44864 38.27 4.44864C38.9579 4.44864 39.4528 4.78464 39.4528 5.50463V5.76863H38.4027ZM37.0994 7.74865C37.0994 8.18065 37.3649 8.48065 37.8597 8.48065C38.2821 8.48065 38.6563 8.34865 38.97 8.08465C39.2959 7.80865 39.4528 7.43665 39.4528 6.94465V6.81265H38.3545C37.5821 6.81265 37.0994 7.17265 37.0994 7.74865ZM42.301 9.48864V3.44064H43.5562V9.48864H42.301ZM45.1614 0.992645V9.48865H46.4166V0.992645H45.1614Z" fill="#6B6C6F"/>
<path fill-rule="evenodd" clip-rule="evenodd" d="M113.008 38.7274C112.614 39.1194 112.614 39.7634 112.994 40.1554C113.389 40.5334 114.065 40.5334 114.445 40.1554C114.839 39.7634 114.839 39.1194 114.445 38.7274C114.05 38.3214 113.403 38.3214 113.008 38.7274ZM96.281 48.4854H94.7321V38.6854H96.5626L99.0126 45.2094L101.463 38.6854H103.293V48.4854H101.744V41.8774L99.5617 47.5894H98.4634L96.281 41.8774V48.4854ZM48.0976 44.2855L45.2815 38.6855H46.9289L48.872 42.7595L50.8151 38.6855H52.4626L49.6465 44.2855V48.4855H48.0976V44.2855ZM54.1242 47.5474C53.4906 46.8474 53.1808 45.9794 53.1808 44.9574C53.1808 43.9354 53.4906 43.0674 54.1242 42.3674C54.7578 41.6674 55.6167 41.3174 56.6728 41.3174C57.7288 41.3174 58.5736 41.6674 59.2073 42.3674C59.8409 43.0674 60.1647 43.9354 60.1647 44.9574C60.1647 45.9794 59.8409 46.8474 59.2073 47.5474C58.5736 48.2474 57.7288 48.5974 56.6728 48.5974C55.6167 48.5974 54.7578 48.2474 54.1242 47.5474ZM54.7294 44.9574C54.7294 44.3134 54.8984 43.7674 55.2363 43.3054C55.5883 42.8434 56.0671 42.6054 56.6725 42.6054C57.278 42.6054 57.7567 42.8434 58.0947 43.3054C58.4467 43.7674 58.6157 44.3134 58.6157 44.9574C58.6157 45.6014 58.4467 46.1614 58.0947 46.6234C57.7567 47.0854 57.278 47.3094 56.6725 47.3094C56.0671 47.3094 55.5883 47.0854 55.2363 46.6234C54.8984 46.1614 54.7294 45.6014 54.7294 44.9574ZM67.8102 41.4294V48.4854H66.3458V47.2814C65.8389 48.1214 64.9941 48.5974 64.0507 48.5974C62.7975 48.5974 61.9668 47.8274 61.9668 46.4834V41.4294H63.4311V46.0214C63.4311 46.8754 63.7972 47.3094 64.5294 47.3094C65.0222 47.3094 65.4446 47.0434 65.7967 46.4974C66.1628 45.9514 66.3458 45.2094 66.3458 44.2854V41.4294H67.8102ZM71.6963 48.4854V45.8674C71.6963 44.8174 71.8794 44.0194 72.2595 43.4594C72.6397 42.8854 73.0903 42.6054 73.6113 42.6054C73.9351 42.6054 74.2167 42.6754 74.442 42.8154L74.6955 41.4854C74.4139 41.3734 74.1182 41.3174 73.7943 41.3174C73.0058 41.3174 72.161 41.7794 71.6963 42.6054V41.4294H70.2319V48.4854H71.6963ZM79.8492 48.4855V38.6855H85.6927V40.1415H81.3981V42.5495H84.8619V44.0055H81.3981V47.0295H85.8335V48.4855H79.8492ZM87.4808 44.6914H92.4512V43.4034H87.4808V44.6914ZM108.306 44.1454C106.461 44.1454 105.236 45.0134 105.236 46.4554C105.236 47.8554 106.165 48.5974 107.419 48.5974C108.39 48.5974 109.122 48.2474 109.615 47.5614L109.756 48.4854H110.995V44.1034C110.995 42.2414 110.052 41.3174 108.165 41.3174C106.813 41.3174 105.785 42.0734 105.489 43.2634L106.827 43.5434C107.067 42.9134 107.503 42.6054 108.151 42.6054C108.953 42.6054 109.531 42.9974 109.531 43.8374V44.1454H108.306ZM106.785 46.4554C106.785 46.9594 107.095 47.3094 107.672 47.3094C108.165 47.3094 108.602 47.1554 108.968 46.8474C109.348 46.5254 109.531 46.0914 109.531 45.5174V45.3634H108.25C107.348 45.3634 106.785 45.7834 106.785 46.4554ZM112.995 48.4854V41.4294H114.459V48.4854H112.995ZM116.782 38.5735V48.4855H118.247V38.5735H116.782Z" fill="#E1E4E8"/>
<path fill-rule="evenodd" clip-rule="evenodd" d="M17.0808 35.4857H33.1728C34.2838 35.4857 35.1843 36.381 35.1843 37.4855V49.4845C35.1843 50.5889 34.2838 51.4843 33.1728 51.4843H17.0808C15.9699 51.4843 15.0693 50.5889 15.0693 49.4845V37.4855C15.0693 36.381 15.9699 35.4857 17.0808 35.4857ZM25.1264 42.4857L33.1724 37.4857H17.0804L25.1264 42.4857ZM17.0804 49.4857H33.1724V39.8557L25.1264 44.8443L17.0804 39.8557V49.4857Z" fill="#DFE2E6"/>
<defs>
<filter id="filter0_d" x="0" y="20.4866" width="423" height="45.9966" filterUnits="userSpaceOnUse" color-interpolation-filters="sRGB">
<feFlood flood-opacity="0" result="BackgroundImageFix"/>
<feColorMatrix in="SourceAlpha" type="matrix" values="0 0 0 0 0 0 0 0 0 0 0 0 0 0 0 0 0 0 127 0"/>
<feOffset/>
<feGaussianBlur stdDeviation="1.5"/>
<feColorMatrix type="matrix" values="0 0 0 0 0 0 0 0 0 0 0 0 0 0 0 0 0 0 0.05 0"/>
<feBlend mode="normal" in2="BackgroundImageFix" result="effect1_dropShadow"/>
<feBlend mode="normal" in="SourceGraphic" in2="effect1_dropShadow" result="shape"/>
</filter>
</defs>
</svg>
