<svg width="25" height="21" viewBox="0 0 25 21" fill="none" xmlns="http://www.w3.org/2000/svg">
<path fill-rule="evenodd" clip-rule="evenodd" d="M8.00741 0.599998H16.0148L18.0167 3.59949H21.0195C22.6785 3.59949 24.0222 4.97312 24.0222 6.63048V17.614C24.0222 19.2711 22.6785 20.5983 21.0195 20.5983H3.00278C1.34374 20.5983 0 19.2559 0 17.5985V6.61498C0 4.95812 1.34374 3.59974 3.00278 3.59974H6.00556L8.00741 0.599998ZM16.3687 4.70932L14.9786 2.6H9.07865L7.6711 4.70932L7.0768 5.59974H6.00556H3.00278C2.45077 5.59974 2.00185 6.05545 2.00185 6.61515V17.599C2.00185 18.1504 2.45077 18.5989 3.00278 18.5989H21.0195C21.5807 18.5989 22.0204 18.1669 22.0204 17.6145V6.6309C22.0204 6.07195 21.562 5.59974 21.0195 5.59974H18.0167H16.9454L16.3687 4.70932Z" fill="black"/>
</svg>
