<svg width="16" height="11" viewBox="0 0 16 11" fill="none" xmlns="http://www.w3.org/2000/svg">
<path fill-rule="evenodd" clip-rule="evenodd" d="M8 0C4.36364 0 1.25818 2.28067 0 5.5C1.25818 8.71933 4.36364 11 8 11C11.6364 11 14.7418 8.71933 16 5.5C14.7418 2.28067 11.6364 0 8 0ZM7.99964 9.16667C5.99237 9.16667 4.36328 7.524 4.36328 5.5C4.36328 3.476 5.99237 1.83333 7.99964 1.83333C10.0069 1.83333 11.636 3.476 11.636 5.5C11.636 7.524 10.0069 9.16667 7.99964 9.16667ZM7.99993 3.3C6.79266 3.3 5.81812 4.28267 5.81812 5.5C5.81812 6.71733 6.79266 7.7 7.99993 7.7C9.20721 7.7 10.1818 6.71733 10.1818 5.5C10.1818 4.28267 9.20721 3.3 7.99993 3.3Z" fill="#DFE2E6"/>
<mask id="mask0" mask-type="alpha" maskUnits="userSpaceOnUse" x="0" y="0" width="16" height="11">
<path fill-rule="evenodd" clip-rule="evenodd" d="M8 0C4.36364 0 1.25818 2.28067 0 5.5C1.25818 8.71933 4.36364 11 8 11C11.6364 11 14.7418 8.71933 16 5.5C14.7418 2.28067 11.6364 0 8 0ZM7.99964 9.16667C5.99237 9.16667 4.36328 7.524 4.36328 5.5C4.36328 3.476 5.99237 1.83333 7.99964 1.83333C10.0069 1.83333 11.636 3.476 11.636 5.5C11.636 7.524 10.0069 9.16667 7.99964 9.16667ZM7.99993 3.3C6.79266 3.3 5.81812 4.28267 5.81812 5.5C5.81812 6.71733 6.79266 7.7 7.99993 7.7C9.20721 7.7 10.1818 6.71733 10.1818 5.5C10.1818 4.28267 9.20721 3.3 7.99993 3.3Z" fill="white"/>
</mask>
<g mask="url(#mask0)">
</g>
</svg>
